<svg width="512" height="512" viewBox="0 0 512 512" xmlns="http://www.w3.org/2000/svg">
  <!-- Fundo verde do Arreda com bordas super arredondadas (estilo app) -->
  <rect width="512" height="512" rx="120" fill="#10b981" />
  
  <!-- Ícone de Carro Minimalista em Branco -->
  <path fill="#ffffff" d="M425.4 216.7l-35.6-107C380.5 82.2 354 64 324.6 64H187.4c-29.4 0-55.9 18.2-65.2 45.7l-35.6 107C72.1 223.3 64 240.2 64 256v128c0 17.7 14.3 32 32 32h16c17.7 0 32-14.3 32-32v-16h224v16c0 17.7 14.3 32 32 32h16c17.7 0 32-14.3 32-32V256c0-15.8-8.1-32.7-22.6-39.3zM160 320c-17.7 0-32-14.3-32-32s14.3-32 32-32 32 14.3 32 32-14.3 32-32 32zm192 0c-17.7 0-32-14.3-32-32s14.3-32 32-32 32 14.3 32 32-14.3 32-32 32zM136.5 186.2l26.2-78.5c3.1-9.2 11.9-15.7 21.6-15.7h143.4c9.7 0 18.5 6.5 21.6 15.7l26.2 78.5c2.3 6.9-2.8 13.8-10.1 13.8H146.6c-7.3 0-12.4-6.9-10.1-13.8z"/>
</svg>
